<svg>
    <symbol id="icon-rigth-corner" xmlns="http://www.w3.org/2000/svg" fill="none" viewBox="0 0 16 16">
        <path fill="currentColor" d="M14 13.5a.5.5 0 0 1-.5.5h-6a.5.5 0 0 1 0-1h4.793L2.146 2.854a.5.5 0 1 1 .708-.708L13 12.293V7.5a.5.5 0 0 1 1 0z"/>
    </symbol>

    <symbol id="icon-map" xmlns="http://www.w3.org/2000/svg" fill="none" viewBox="0 0 18 21">
        <path stroke="currentColor" stroke-linejoin="round" stroke-width="3" d="M9 9h.01v.01H9z"/>
        <path fill="none" stroke="currentColor" stroke-linejoin="round" stroke-width="1" d="m9 20 5.5-5.5a7.778 7.778 0 1 0-11 0L9 20Z"/>
    </symbol>

    <symbol id="icon-work" xmlns="http://www.w3.org/2000/svg" fill="none" viewBox="0 0 20 20">
        <circle fill="none" cx="10" cy="10" r="9" stroke="currentColor" stroke-linecap="round" stroke-linejoin="round" stroke-width="1"/>
        <path fill="none" stroke="currentColor" stroke-linecap="round" stroke-linejoin="round" stroke-width="1" d="M9 6v5h5"/>
    </symbol>

    <symbol id="icon-calendar" xmlns="http://www.w3.org/2000/svg" fill="none" viewBox="0 0 18 19">
        <path fill="none" stroke="currentColor" stroke-linecap="round" stroke-linejoin="round" stroke-width="1" d="M1 2h16v14a2 2 0 0 1-2 2H3a2 2 0 0 1-2-2V2ZM1 6h16M13 1v2M5 1v2"/>
    </symbol>

    <symbol id="icon-iso" xmlns="http://www.w3.org/2000/svg" fill="none" viewBox="0 0 19 18">
        <path fill="none" stroke="currentColor" stroke-linecap="round" stroke-linejoin="round" stroke-width="1" d="M14.36 17H3a2 2 0 0 1-2-2V7h3.93a2 2 0 0 0 1.664-.89L9.11 2.335A3 3 0 0 1 11.606 1h.214a1 1 0 0 1 .986 1.164L12 7h3.56a2 2 0 0 1 1.962 2.392l-1.2 6A2 2 0 0 1 14.36 17Z"/>
        <path fill="white" stroke="currentColor" stroke-width="1" d="M5 7v10"/>
    </symbol>

    <symbol id="icon-truck" viewBox="0 0 27 20" fill="none" xmlns="http://www.w3.org/2000/svg">
        <path d="M17 7H21.5C26 7 26 10.5 26 12V15C26 17 25.5 17 24.5 17H22H19.5H17H12.5H10H7.5C6 17 6 17 6 15V10.5V6V2C6 2 6 1 7 1H16C17 1 17 2 17 2V7Z" fill="white"/>
        <path fill="none" d="M17 7C17 7 17 7 21.5 7C26 7 26 10.5 26 12C26 12.7353 26 13.9513 26 15C26 17 25.5 17 24.5 17C24.5 17 25 17 22 17C19 17 19.5 17 19.5 17M17 7V17M17 7V2C17 2 17 1 16 1C15 1 8 1 7 1C6 1 6 2 6 2V6M12.5 17C12.5 17 12.5 17 10 17C7.5 17 7.5 17 7.5 17C6 17 6 17 6 15V10.5M12.5 17C14.5392 17 17.4608 17 19.5 17M12.5 17H19.5M6 6H2.5M6 6V10.5M6 10.5H0.5" stroke="currentColor"/>
        <circle cx="11" cy="17" r="2.5" fill="white" stroke="currentColor"/>
        <circle cx="21" cy="17" r="2.5" fill="white" stroke="currentColor"/>
    </symbol>

    <symbol id="icon-square" viewBox="0 0 24 24" fill="none" xmlns="http://www.w3.org/2000/svg">
        <rect fill="none" x="1" y="1" width="22" height="22" stroke="currentColor" stroke-width="1.5"/>
    </symbol>

    <symbol id="icon-rectangle" viewBox="0 0 48 24" fill="none" xmlns="http://www.w3.org/2000/svg">
        <rect fill="none" x="1" y="1" width="46" height="22" stroke="currentColor" stroke-width="2"/>
    </symbol>

    <symbol id="icon-circle" viewBox="0 0 24 24" fill="none" xmlns="http://www.w3.org/2000/svg">
        <circle fill="none" cx="12" cy="12" r="11" stroke="currentColor" stroke-width="1.5"/>
    </symbol>

    <symbol id="icon-circle-v2" viewBox="0 0 24 24" fill="none" xmlns="http://www.w3.org/2000/svg">
        <rect fill="none" x="1" y="1" width="22" height="22" rx="11" stroke="currentColor" stroke-width="1.5"/>
        <path d="M4.57386 15V9.18182H6.80114C7.22159 9.18182 7.57102 9.24811 7.84943 9.38068C8.12973 9.51136 8.33902 9.69034 8.47727 9.91761C8.61742 10.1449 8.6875 10.4025 8.6875 10.6903C8.6875 10.9271 8.64205 11.1297 8.55114 11.2983C8.46023 11.465 8.33807 11.6004 8.18466 11.7045C8.03125 11.8087 7.85985 11.8835 7.67045 11.929V11.9858C7.87689 11.9972 8.07481 12.0606 8.2642 12.1761C8.45549 12.2898 8.61174 12.4508 8.73295 12.6591C8.85417 12.8674 8.91477 13.1193 8.91477 13.4148C8.91477 13.7159 8.84186 13.9867 8.69602 14.2273C8.55019 14.4659 8.33049 14.6544 8.03693 14.7926C7.74337 14.9309 7.37405 15 6.92898 15H4.57386ZM5.62784 14.1193H6.76136C7.14394 14.1193 7.41951 14.0464 7.58807 13.9006C7.75852 13.7528 7.84375 13.5634 7.84375 13.3324C7.84375 13.16 7.80114 13.0047 7.71591 12.8665C7.63068 12.7263 7.50947 12.6165 7.35227 12.5369C7.19508 12.4555 7.00758 12.4148 6.78977 12.4148H5.62784V14.1193ZM5.62784 11.6562H6.67045C6.85227 11.6562 7.0161 11.6231 7.16193 11.5568C7.30777 11.4886 7.42235 11.393 7.50568 11.2699C7.59091 11.1449 7.63352 10.9972 7.63352 10.8267C7.63352 10.6013 7.55398 10.4157 7.39489 10.2699C7.23769 10.1241 7.00379 10.0511 6.69318 10.0511H5.62784V11.6562ZM13.5732 9.18182V10.0653H10.8857V15H9.83168V9.18182H13.5732ZM19.2116 9.18182V15H18.1662V10.0568H15.6207V15H14.5753V9.18182H19.2116Z" fill="currentColor"/>
    </symbol>

    <symbol id="icon-rectangle-rounded" viewBox="0 0 48 24" fill="none" xmlns="http://www.w3.org/2000/svg">
        <rect fill="none" x="1" y="1" width="46" height="22" rx="9" stroke="currentColor" stroke-width="2"/>
    </symbol>

    <symbol id="icon-elipse" viewBox="0 0 48 24" fill="none" xmlns="http://www.w3.org/2000/svg">
        <path fill="none" d="M47 12C47 14.7309 44.7602 17.4724 40.5233 19.5909C36.3463 21.6794 30.5058 23 24 23C17.4942 23 11.6537 21.6794 7.47665 19.5909C3.23981 17.4724 1 14.7309 1 12C1 9.26912 3.23981 6.52757 7.47665 4.40915C11.6537 2.32063 17.4942 1 24 1C30.5058 1 36.3463 2.32063 40.5233 4.40915C44.7602 6.52757 47 9.26912 47 12Z" stroke="currentColor" stroke-width="2"/>
    </symbol>

    <symbol id="icon-house-check" xmlns="http://www.w3.org/2000/svg" fill="none" viewBox="0 0 20 20">
        <path fill="none" stroke="currentColor" stroke-linecap="round" stroke-linejoin="round" stroke-width="1" d="M17 8v9a2 2 0 0 1-2 2H5a2 2 0 0 1-2-2V8m16 2-9-9-9 9"/>
    </symbol>

    <svg id="icon-scissors" xmlns="http://www.w3.org/2000/svg" fill="none" viewBox="0 0 18 22">
        <path stroke="currentColor" stroke-linecap="round" stroke-linejoin="round" stroke-width="1" d="M10 3H3a2 2 0 0 0-2 2v12a2 2 0 0 0 2 2h7m4-16h1a2 2 0 0 1 2 2v1m0 10v1a2 2 0 0 1-2 2h-1m3-9v2M9 1v20"/>
    </svg>

    <symbol id="icon-calc" xmlns="http://www.w3.org/2000/svg" fill="none" viewBox="0 0 16 20">
        <path fill="none" stroke="currentColor" stroke-linejoin="round" stroke-width="1" d="M1 1h14v16a2 2 0 0 1-2 2H3a2 2 0 0 1-2-2V1Z"/>
        <path stroke="currentColor" stroke-linecap="round" stroke-width="1" d="M1 7h14M5 11h1M10 11h1M5 15h1M10 15h1"/>
    </symbol>

    <symbol id="icon-quality" xmlns="http://www.w3.org/2000/svg" fill="none" viewBox="0 0 16 20">
        <path fill="none" stroke="currentColor" stroke-linejoin="round" stroke-width="1" d="M1.606 3.74 8 1l6.394 2.74a1 1 0 0 1 .606.92v6.858a6 6 0 0 1-3.023 5.21L8 19l-3.977-2.273A6 6 0 0 1 1 11.518V4.66a1 1 0 0 1 .606-.919Z"/>
    </symbol>

    <symbol id="icon-5tn" xmlns="http://www.w3.org/2000/svg" fill="none" viewBox="0 0 42 35">
        <path
            fill="#D9D9D9"
            fill-rule="evenodd"
            d="M0 8.213 2.053 0H40.32L42 8.213v26.32H0V8.213Zm2.987-4.48.56-2.613H38.64l.373 2.613h-3.546l.186 1.867h3.734l.373 2.613H2.053l.56-2.613h8.027l.187-1.867h-7.84Zm5.678 23.033c.523.249 1.117.373 1.78.373.719 0 1.352-.149 1.899-.447.55-.302.98-.715 1.287-1.238.312-.527.468-1.127.468-1.8 0-.653-.14-1.233-.418-1.74a3.093 3.093 0 0 0-1.143-1.193 3.134 3.134 0 0 0-1.65-.438c-.412 0-.79.075-1.134.224-.345.146-.612.33-.8.552h-.06l.293-2.7h4.38v-1.54H7.66l-.532 5.25 1.665.273c.172-.19.406-.342.701-.458.295-.116.595-.172.9-.169a1.9 1.9 0 0 1 .994.259c.289.169.516.402.681.7.166.299.247.64.244 1.025a2.02 2.02 0 0 1-.239 1.01 1.781 1.781 0 0 1-.666.69 1.865 1.865 0 0 1-.964.249c-.461 0-.856-.131-1.184-.393a1.41 1.41 0 0 1-.542-1.024H6.93c.02.563.183 1.064.488 1.501.308.438.724.782 1.248 1.034Zm6.751-9.948v1.546h3.147V27h1.83v-8.636h3.147v-1.546h-8.124Zm9.69 0V27h1.844v-4.325h4.718V27h1.85V16.818h-1.85v4.31H26.95v-4.31h-1.844Z"
            clip-rule="evenodd">
        </path>
    </symbol>

    <symbol id="icon-20tn" xmlns="http://www.w3.org/2000/svg" fill="none" viewBox="0 0 42 35">
        <path
            fill="#D9D9D9"
            fill-rule="evenodd"
            d="M0 8.213 2.053 0H40.32L42 8.213v26.32H0V8.213Zm2.987-4.48.56-2.613H38.64l.373 2.613h-3.546l.186 1.867h3.734l.373 2.613H2.053l.56-2.613h8.027l.187-1.867h-7.84Zm-.082 21.935V27h6.98v-1.541H5.45v-.07l1.755-1.785c.66-.636 1.172-1.178 1.536-1.625.368-.448.625-.855.771-1.223.146-.368.219-.743.219-1.124 0-.57-.144-1.077-.433-1.521a2.934 2.934 0 0 0-1.203-1.05c-.517-.254-1.117-.382-1.8-.382-.672 0-1.269.13-1.79.393a2.986 2.986 0 0 0-1.217 1.108c-.295.478-.443 1.04-.443 1.686H4.6c0-.348.068-.648.204-.9.14-.252.335-.446.587-.582a1.79 1.79 0 0 1 .88-.209c.324 0 .614.063.87.19.255.125.455.304.601.536.146.229.219.504.219.826 0 .281-.056.546-.17.795a3.338 3.338 0 0 1-.506.77c-.226.266-.507.569-.845.91l-3.535 3.466Zm10.35.904c.587.415 1.29.622 2.109.622.818 0 1.52-.207 2.103-.622.586-.414 1.035-1.014 1.347-1.8.315-.788.472-1.74.472-2.853 0-1.107-.157-2.052-.472-2.834-.312-.782-.76-1.379-1.347-1.79-.587-.41-1.288-.616-2.103-.616-.816 0-1.517.206-2.103.617-.584.41-1.033 1.007-1.348 1.79-.311.778-.469 1.723-.472 2.833 0 1.11.156 2.06.467 2.849.315.785.764 1.387 1.348 1.804Zm3.615-1.874c-.368.627-.87.94-1.506.94-.425 0-.79-.14-1.1-.418-.307-.282-.546-.7-.715-1.253-.166-.553-.247-1.236-.244-2.048.004-1.213.19-2.133.557-2.76.368-.629.869-.944 1.502-.944.42 0 .785.141 1.093.423.309.278.547.692.716 1.243.17.55.254 1.23.254 2.038 0 1.223-.186 2.15-.557 2.78Zm3.72-7.88v1.546h3.147V27h1.83v-8.636h3.147v-1.546H20.59Zm9.69 0V27h1.844v-4.325h4.718V27h1.85V16.818h-1.85v4.31h-4.718v-4.31H30.28Z"
            clip-rule="evenodd">
        </path>
    </symbol>

    <symbol id="icon-60tn" xmlns="http://www.w3.org/2000/svg" fill="none" viewBox="0 0 107 46">
        <path
            fill="#D9D9D9"
            fill-rule="evenodd"
            d="M6.924.341h93.782v36.506H107v4.406H100.037a5.035 5.035 0 0 1-9.992 0H79.267a5.036 5.036 0 0 1-9.993 0H37.726a5.036 5.036 0 0 1-9.993 0H16.955a5.036 5.036 0 0 1-9.992 0H0v-4.406h6.924V.34Zm33.283 27.545a4.3 4.3 0 0 0 1.427.253c.732.004 1.374-.147 1.924-.452.55-.305.98-.723 1.287-1.253.308-.534.46-1.135.458-1.805a3.844 3.844 0 0 0-.084-.836 3.156 3.156 0 0 0-.33-.874 3.136 3.136 0 0 0-1.132-1.178 3.06 3.06 0 0 0-1.607-.428c-.364 0-.71.058-1.039.174a2.894 2.894 0 0 0-.875.483 2.539 2.539 0 0 0-.63.75h-.07c.003-1.07.194-1.912.571-2.525.245-.393.555-.66.933-.801.212-.08.444-.12.698-.12.438 0 .8.119 1.083.354.29.232.48.543.573.934h1.814a3.28 3.28 0 0 0-.566-1.471 3.208 3.208 0 0 0-1.204-1.034c-.494-.252-1.06-.378-1.7-.378-.61 0-1.162.124-1.656.373-.49.248-.91.61-1.258 1.084-.347.47-.614 1.047-.8 1.73-.185.683-.278 1.46-.278 2.332a8.717 8.717 0 0 0 .121 1.56c.051.286.118.55.202.791.22.63.514 1.135.885 1.516.371.378.788.652 1.253.82Zm2.386-1.502a1.812 1.812 0 0 1-.969.264c-.361 0-.684-.09-.97-.269a1.903 1.903 0 0 1-.67-.716 2.028 2.028 0 0 1-.1-1.735c.1-.238.235-.447.407-.626a1.834 1.834 0 0 1 1.357-.582c.362 0 .683.086.965.259.282.172.502.406.661.7.163.296.242.625.239.99.003.371-.078.706-.243 1.004a1.912 1.912 0 0 1-.677.711Zm6.046 1.189c.587.414 1.289.62 2.107.62.602 0 1.139-.11 1.612-.334.172-.08.336-.176.492-.287.3-.21.563-.47.79-.78a4.51 4.51 0 0 0 .556-1.02c.316-.788.473-1.74.473-2.853 0-1.107-.157-2.052-.473-2.834-.311-.782-.76-1.379-1.346-1.79-.587-.41-1.288-.616-2.104-.616-.815 0-1.516.206-2.102.616-.584.411-1.033 1.008-1.348 1.79-.312.779-.469 1.724-.472 2.834 0 1.11.156 2.06.467 2.849.315.785.764 1.387 1.348 1.805Zm3.614-1.875c-.368.627-.87.94-1.507.94-.424 0-.79-.14-1.099-.418-.307-.281-.546-.7-.715-1.253-.166-.553-.247-1.236-.244-2.048.003-1.213.189-2.133.557-2.76.189-.321.411-.561.668-.719.246-.15.524-.225.833-.225.421 0 .786.141 1.094.423.308.278.547.693.716 1.243.17.55.254 1.23.254 2.038 0 1.223-.186 2.15-.557 2.78Zm3.72-7.88v1.546h3.147V28h1.83v-8.636h3.147v-1.546h-8.124Zm9.69 0V28h1.844v-4.325h4.718V28h1.85V17.818h-1.85v4.31h-4.718v-4.31h-1.845Z"
            clip-rule="evenodd">
        </path>
    </symbol>

    <symbol id="icon-1tn" xmlns="http://www.w3.org/2000/svg" fill="none" viewBox="0 0 42 35">
        <path
            fill="#D9D9D9"
            fill-rule="evenodd"
            d="M0 8.213 2.053 0H40.32L42 8.213v26.32H0V8.213Zm2.987-4.48.56-2.613H38.64l.373 2.613h-3.546l.186 1.867h3.734l.373 2.613H2.053l.56-2.613h8.027l.187-1.867h-7.84ZM12.047 27V16.818H10.29l-2.53 1.626v1.69l2.381-1.521h.06V27h1.844Zm2.236-10.182v1.546h3.147V27h1.83v-8.636h3.147v-1.546h-8.124Zm9.69 0V27h1.845v-4.325h4.717V27h1.85V16.818h-1.85v4.31h-4.718v-4.31h-1.844Z"
            clip-rule="evenodd">
        </path>
    </symbol>

    <symbol id="icon-pipe" xmlns="http://www.w3.org/2000/svg" fill="none" viewBox="0 0 146 29">
        <path
            fill="#D9D9D9"
            d="M0 14.5C0 6.492 6.492 0 14.5 0H136a9 9 0 0 1 9 9v11a9 9 0 0 1-9 9H14.5C6.492 29 0 22.508 0 14.5Z">
        </path>
        <ellipse cx="138" cy="14.5" fill="#B7B7B7" rx="8" ry="14.5"></ellipse>
    </symbol>

    <symbol id="icon-pipes" xmlns="http://www.w3.org/2000/svg" fill="none" viewBox="0 0 228 42">
        <path fill="#D9D9D9" d="M53 0h167v29H53V0Z"></path>
          <ellipse cx="220" cy="14.5" fill="#B7B7B7" rx="8" ry="14.5"></ellipse>
          <ellipse cx="53" cy="14.5" fill="#D9D9D9" rx="8" ry="14.5"></ellipse>
          <mask id="a" width="167" height="30" x="31" y="5" fill="#000" maskUnits="userSpaceOnUse">
            <path fill="#fff" d="M31 5h167v30H31z"></path>
            <path d="M31 6h167v29H31V6Z"></path>
          </mask>
          <path fill="#D9D9D9" d="M31 6h167v29H31V6Z"></path>
          <path fill="#fff" d="M31 7h167V5H31v2Z" mask="url(#a)"></path>
          <path
            fill="#B7B7B7"
            stroke="#fff"
            d="M198 35.5c2.475 0 4.609-1.812 6.095-4.505 1.495-2.712 2.405-6.423 2.405-10.495 0-4.072-.91-7.784-2.405-10.495C202.609 7.312 200.475 5.5 198 5.5c-2.475 0-4.609 1.812-6.095 4.505-1.495 2.711-2.405 6.423-2.405 10.495 0 4.072.91 7.784 2.405 10.495 1.486 2.693 3.62 4.505 6.095 4.505Z"
          ></path>
          <ellipse cx="31" cy="20.5" fill="#D9D9D9" rx="8" ry="14.5"></ellipse>
          <mask id="b" width="167" height="30" x="8" y="11" fill="#000" maskUnits="userSpaceOnUse">
            <path fill="#fff" d="M8 11h167v30H8z"></path>
            <path d="M8 12h167v29H8V12Z"></path>
          </mask>
          <path fill="#D9D9D9" d="M8 12h167v29H8V12Z"></path>
          <path fill="#fff" d="M8 13h167v-2H8v2Z" mask="url(#b)"></path>
          <path
            fill="#B7B7B7"
            stroke="#fff"
            d="M175 41.5c2.475 0 4.609-1.812 6.095-4.505 1.495-2.712 2.405-6.423 2.405-10.495 0-4.072-.91-7.784-2.405-10.495-1.486-2.693-3.62-4.505-6.095-4.505-2.475 0-4.609 1.812-6.095 4.505-1.495 2.712-2.405 6.423-2.405 10.495 0 4.072.91 7.783 2.405 10.495 1.486 2.693 3.62 4.505 6.095 4.505Z"
          ></path>
          <ellipse cx="8" cy="26.5" fill="#D9D9D9" rx="8" ry="14.5"></ellipse>
    </symbol>

    <symbol id="icon-saw" xmlns="http://www.w3.org/2000/svg" fill="none" viewBox="0 0 183 95">
    <path fill="#D9D9D9" d="M8 33h167v29H8z"/>
    <mask id="a" width="95" height="95" x="41" y="0" fill="#000" maskUnits="userSpaceOnUse">
        <path fill="#fff" d="M41 0h95v95H41z"/>
        <path d="M43.76 47.707 43 53.061l1.336-1.036c1.428-1.117 3.501-.265 3.766 1.542v.035l-2.764 5.665.645 5.376 1.025-1.335c1.094-1.451 3.294-1.152 4.043.518 0 0 .023.023.023.034l-1.21 6.194 2.039 5.008.633-1.588a2.325 2.325 0 0 1 3.986-.541l.034.034.45 6.32 3.282 4.318.207-1.704c.219-1.784 2.28-2.613 3.72-1.554l.035.035 2.061 5.952 4.285 3.35-.242-1.635c-.242-1.796 1.52-3.154 3.225-2.521 0 0 .023.023.035.023l3.524 5.204 4.964 2.107-.668-1.554c-.703-1.67.668-3.408 2.465-3.201h.034l4.78 4.133 5.356.76-1.037-1.335c-1.117-1.405-.265-3.489 1.544-3.765h.034l5.667 2.763 5.355-.668-1.336-1.025c-1.451-1.093-1.151-3.292.519-4.018 0 0 .023 0 .034-.023l6.197 1.21 5.021-2.016-1.578-.633c-1.67-.69-1.946-2.89-.541-4.018 0-.023.023-.023.023-.034l6.3-.45 4.319-3.246-1.647-.208c-1.797-.218-2.649-2.302-1.578-3.764 0-.023.023-.023.023-.035l5.966-2.038 3.317-4.26-1.681.22c-1.797.264-3.133-1.52-2.465-3.19.023-.023.023-.034.023-.034l5.241-3.535 2.096-4.985-1.555.668c-1.67.702-3.432-.691-3.225-2.487 0 0 0-.023.023-.035l4.135-4.766.737-5.354-1.336 1.036c-1.428 1.117-3.49.265-3.743-1.542 0 0-.023-.023-.023-.035l2.775-5.664-.668-5.377-1.002 1.335c-1.094 1.451-3.317 1.152-4.042-.518-.023 0-.023-.023-.023-.034l1.186-6.194-2.016-5.009-.645 1.59c-.668 1.646-2.867 1.945-3.985.54 0-.023-.023-.023-.023-.034l-.46-6.32-3.26-4.318-.207 1.704c-.219 1.773-2.281 2.613-3.743 1.554 0-.023-.023-.023-.035-.035l-2.038-5.952-4.285-3.339.219 1.612c.265 1.796-1.52 3.155-3.202 2.522-.023 0-.035-.024-.035-.024l-3.524-5.203-4.964-2.107.645 1.542c.703 1.67-.668 3.431-2.465 3.224h-.057L88.298 2.76 82.92 2l1.036 1.336c1.117 1.427.265 3.488-1.52 3.764h-.046l-5.667-2.763-5.355.668 1.336 1.002c1.45 1.093 1.128 3.315-.519 4.04-.023 0-.034 0-.034.024l-6.173-1.21-5.045 2.016 1.612.644c1.67.691 1.924 2.89.518 4.007l-.034.034-6.289.45-4.342 3.246 1.647.207c1.797.22 2.672 2.303 1.59 3.765l-.035.035-5.954 2.038-3.34 4.26 1.67-.22c1.808-.264 3.155 1.497 2.51 3.19v.034l-5.263 3.535-2.108 4.985 1.578-.645c1.67-.725 3.41.645 3.225 2.464v.035l-4.158 4.766Zm44.746-9.153c4.93 0 8.949 4.007 8.949 8.946 0 4.95-4.02 8.946-8.95 8.946a8.942 8.942 0 0 1-8.948-8.946c-.012-4.95 3.996-8.946 8.949-8.946Z"/>
    </mask>
    <path fill="#D9D9D9" d="M43.76 47.707 43 53.061l1.336-1.036c1.428-1.117 3.501-.265 3.766 1.542v.035l-2.764 5.665.645 5.376 1.025-1.335c1.094-1.451 3.294-1.152 4.043.518 0 0 .023.023.023.034l-1.21 6.194 2.039 5.008.633-1.588a2.325 2.325 0 0 1 3.986-.541l.034.034.45 6.32 3.282 4.318.207-1.704c.219-1.784 2.28-2.613 3.72-1.554l.035.035 2.061 5.952 4.285 3.35-.242-1.635c-.242-1.796 1.52-3.154 3.225-2.521 0 0 .023.023.035.023l3.524 5.204 4.964 2.107-.668-1.554c-.703-1.67.668-3.408 2.465-3.201h.034l4.78 4.133 5.356.76-1.037-1.335c-1.117-1.405-.265-3.489 1.544-3.765h.034l5.667 2.763 5.355-.668-1.336-1.025c-1.451-1.093-1.151-3.292.519-4.018 0 0 .023 0 .034-.023l6.197 1.21 5.021-2.016-1.578-.633c-1.67-.69-1.946-2.89-.541-4.018 0-.023.023-.023.023-.034l6.3-.45 4.319-3.246-1.647-.208c-1.797-.218-2.649-2.302-1.578-3.764 0-.023.023-.023.023-.035l5.966-2.038 3.317-4.26-1.681.22c-1.797.264-3.133-1.52-2.465-3.19.023-.023.023-.034.023-.034l5.241-3.535 2.096-4.985-1.555.668c-1.67.702-3.432-.691-3.225-2.487 0 0 0-.023.023-.035l4.135-4.766.737-5.354-1.336 1.036c-1.428 1.117-3.49.265-3.743-1.542 0 0-.023-.023-.023-.035l2.775-5.664-.668-5.377-1.002 1.335c-1.094 1.451-3.317 1.152-4.042-.518-.023 0-.023-.023-.023-.034l1.186-6.194-2.016-5.009-.645 1.59c-.668 1.646-2.867 1.945-3.985.54 0-.023-.023-.023-.023-.034l-.46-6.32-3.26-4.318-.207 1.704c-.219 1.773-2.281 2.613-3.743 1.554 0-.023-.023-.023-.035-.035l-2.038-5.952-4.285-3.339.219 1.612c.265 1.796-1.52 3.155-3.202 2.522-.023 0-.035-.024-.035-.024l-3.524-5.203-4.964-2.107.645 1.542c.703 1.67-.668 3.431-2.465 3.224h-.057L88.298 2.76 82.92 2l1.036 1.336c1.117 1.427.265 3.488-1.52 3.764h-.046l-5.667-2.763-5.355.668 1.336 1.002c1.45 1.093 1.128 3.315-.519 4.04-.023 0-.034 0-.034.024l-6.173-1.21-5.045 2.016 1.612.644c1.67.691 1.924 2.89.518 4.007l-.034.034-6.289.45-4.342 3.246 1.647.207c1.797.22 2.672 2.303 1.59 3.765l-.035.035-5.954 2.038-3.34 4.26 1.67-.22c1.808-.264 3.155 1.497 2.51 3.19v.034l-5.263 3.535-2.108 4.985 1.578-.645c1.67-.725 3.41.645 3.225 2.464v.035l-4.158 4.766Zm44.746-9.153c4.93 0 8.949 4.007 8.949 8.946 0 4.95-4.02 8.946-8.95 8.946a8.942 8.942 0 0 1-8.948-8.946c-.012-4.95 3.996-8.946 8.949-8.946Z"/>
    <path fill="none" stroke="#fff" stroke-width="2" d="M43.76 47.707 43 53.061l1.336-1.036c1.428-1.117 3.501-.265 3.766 1.542v.035l-2.764 5.665.645 5.376 1.025-1.335c1.094-1.451 3.294-1.152 4.043.518 0 0 .023.023.023.034l-1.21 6.194 2.039 5.008.633-1.588a2.325 2.325 0 0 1 3.986-.541l.034.034.45 6.32 3.282 4.318.207-1.704c.219-1.784 2.28-2.613 3.72-1.554l.035.035 2.061 5.952 4.285 3.35-.242-1.635c-.242-1.796 1.52-3.154 3.225-2.521 0 0 .023.023.035.023l3.524 5.204 4.964 2.107-.668-1.554c-.703-1.67.668-3.408 2.465-3.201h.034l4.78 4.133 5.356.76-1.037-1.335c-1.117-1.405-.265-3.489 1.544-3.765h.034l5.667 2.763 5.355-.668-1.336-1.025c-1.451-1.093-1.151-3.292.519-4.018 0 0 .023 0 .034-.023l6.197 1.21 5.021-2.016-1.578-.633c-1.67-.69-1.946-2.89-.541-4.018 0-.023.023-.023.023-.034l6.3-.45 4.319-3.246-1.647-.208c-1.797-.218-2.649-2.302-1.578-3.764 0-.023.023-.023.023-.035l5.966-2.038 3.317-4.26-1.681.22c-1.797.264-3.133-1.52-2.465-3.19.023-.023.023-.034.023-.034l5.241-3.535 2.096-4.985-1.555.668c-1.67.702-3.432-.691-3.225-2.487 0 0 0-.023.023-.035l4.135-4.766.737-5.354-1.336 1.036c-1.428 1.117-3.49.265-3.743-1.542 0 0-.023-.023-.023-.035l2.775-5.664-.668-5.377-1.002 1.335c-1.094 1.451-3.317 1.152-4.042-.518-.023 0-.023-.023-.023-.034l1.186-6.194-2.016-5.009-.645 1.59c-.668 1.646-2.867 1.945-3.985.54 0-.023-.023-.023-.023-.034l-.46-6.32-3.26-4.318-.207 1.704c-.219 1.773-2.281 2.613-3.743 1.554 0-.023-.023-.023-.035-.035l-2.038-5.952-4.285-3.339.219 1.612c.265 1.796-1.52 3.155-3.202 2.522-.023 0-.035-.024-.035-.024l-3.524-5.203-4.964-2.107.645 1.542c.703 1.67-.668 3.431-2.465 3.224h-.057L88.298 2.76 82.92 2l1.036 1.336c1.117 1.427.265 3.488-1.52 3.764h-.046l-5.667-2.763-5.355.668 1.336 1.002c1.45 1.093 1.128 3.315-.519 4.04-.023 0-.034 0-.034.024l-6.173-1.21-5.045 2.016 1.612.644c1.67.691 1.924 2.89.518 4.007l-.034.034-6.289.45-4.342 3.246 1.647.207c1.797.22 2.672 2.303 1.59 3.765l-.035.035-5.954 2.038-3.34 4.26 1.67-.22c1.808-.264 3.155 1.497 2.51 3.19v.034l-5.263 3.535-2.108 4.985 1.578-.645c1.67-.725 3.41.645 3.225 2.464v.035l-4.158 4.766Zm44.746-9.153c4.93 0 8.949 4.007 8.949 8.946 0 4.95-4.02 8.946-8.95 8.946a8.942 8.942 0 0 1-8.948-8.946c-.012-4.95 3.996-8.946 8.949-8.946Z" mask="url(#a)"/>
    <ellipse cx="175" cy="47.5" fill="#B7B7B7" rx="8" ry="14.5"/>
    <ellipse cx="8" cy="47.5" fill="#D9D9D9" rx="8" ry="14.5"/>
    </symbol>


    <symbol id="icon-truck" xmlns="http://www.w3.org/2000/svg" fill="none" viewBox="0 0 151 80">
        <path
            fill="#D9D9D9"
            fill-rule="evenodd"
            d="M4.027.636v53.957H0V67.48h14.093c0-8.451 6.851-15.302 15.302-15.302 8.45 0 15.301 6.851 15.301 15.302h59.595c0-8.451 6.85-15.302 15.301-15.302s15.301 6.851 15.301 15.302H151V41.708c-4.285-7.532-7.902-9.49-17.315-9.261L117.981 13.52H94.224v41.072H90.6V.636H4.027Zm94.626 16.51v14.898h26.576l-11.677-14.899H98.653Z"
            clip-rule="evenodd"></path>
          <circle cx="29.5" cy="67.5" r="12.5" fill="#D9D9D9"></circle>
          <circle cx="119.5" cy="67.5" r="12.5" fill="#D9D9D9"></circle>
    </symbol>

    <symbol id="icon-roll" xmlns="http://www.w3.org/2000/svg" fill="none" viewBox="0 0 66 56">
        <path
            fill="#D9D9D9"
            d="M38.34 0a27.59 27.59 0 0 0-27.56 27.56v12.78A10.79 10.79 0 0 1 0 51.12v4a14.79 14.79 0 0 0 14.71-13.39A27.561 27.561 0 1 0 38.34 0Zm0 51.12a23.56 23.56 0 1 1 23.61-23.56 23.59 23.59 0 0 1-23.61 23.56Zm0-45.62A22.06 22.06 0 1 0 60.4 27.56 22.09 22.09 0 0 0 38.34 5.5Zm0 43.12A21.06 21.06 0 1 1 59.4 27.56a21.09 21.09 0 0 1-21.06 21.06Zm0-40.62a19.56 19.56 0 1 0 19.61 19.56A19.58 19.58 0 0 0 38.34 8Zm0 38.12a18.56 18.56 0 1 1 18.61-18.56 18.59 18.59 0 0 1-18.61 18.56Zm0-35.62A17.06 17.06 0 1 0 55.4 27.56 17.08 17.08 0 0 0 38.34 10.5Zm0 33.12A16.06 16.06 0 1 1 54.4 27.56a16.07 16.07 0 0 1-16.06 16.06Zm0-30.62a14.56 14.56 0 1 0 14.61 14.56A14.57 14.57 0 0 0 38.34 13Zm0 28.12a13.561 13.561 0 1 1 13.61-13.56 13.57 13.57 0 0 1-13.61 13.56Zm0-25.62A12.06 12.06 0 1 0 50.4 27.56 12.07 12.07 0 0 0 38.34 15.5Zm0 23.12A11.06 11.06 0 1 1 49.4 27.56a11.07 11.07 0 0 1-11.06 11.06Zm0-20.12a9.06 9.06 0 1 0 0 18.12 9.06 9.06 0 0 0 0-18.12Zm0 14.12a5.06 5.06 0 1 1 5.06-5.06 5.07 5.07 0 0 1-5.06 5.06Z"
          ></path>
    </symbol>

    <symbol id="icon-box" xmlns="http://www.w3.org/2000/svg" fill="none" viewBox="0 0 188 46">
        <path fill="#B5B5B5" d="m23 27 4.94-6H166l-6.313 6H23Z"></path>
        <path fill="#E4E4E4" d="M0 27 28 0v20.876L23.059 27H0Z"></path>
        <path fill="#EFEFEF" d="M188 0H28v21h138.282L188 0Z"></path>
        <path fill="#E4E4E4" d="M0 46V27h160v19H0Z"></path>
        <path fill="#CDCCCC" d="m188 0-28 27.042V46l28-27.125V0Z"></path>
    </symbol>

    <symbol id="icon-umbrella" xmlns="http://www.w3.org/2000/svg" fill="none" viewBox="0 0 56 58">
        <path
          fill="#D9D9D9"
          d="M22 55.187c-1.103 0-2-.897-2-2v-16h-2v16c0 2.206 1.794 4 4 4s4-1.794 4-4h-2c0 1.103-.897 2-2 2Zm-3-40c-10.477 0-19 8.523-19 19v1h38v-1c0-10.477-8.523-19-19-19Zm34.761 3.451-5.292-5.864-5.863 5.292c-3.232 2.919-3.488 7.923-.57 11.154a7.914 7.914 0 0 0 5.865 2.606 7.886 7.886 0 0 0 5.289-2.034c3.232-2.917 3.489-7.922.571-11.154Zm-17.623-1.884c1.757 0 3.446-.75 4.633-2.056a6.23 6.23 0 0 0 1.632-4.475 6.098 6.098 0 0 0-2.001-4.295l-4.568-4.153-4.196 4.617a6.23 6.23 0 0 0-1.631 4.474 6.128 6.128 0 0 0 6.131 5.888Zm14.048-6.567c1.072 0 2.1-.403 2.892-1.135 1.719-1.587 1.837-4.264.265-5.967L50.49 0l-3.117 2.879a4.235 4.235 0 0 0-1.368 2.934 4.15 4.15 0 0 0 1.103 3.031 4.2 4.2 0 0 0 3.078 1.343Z"
        ></path>
    </symbol>
</svg>
